<?xml version="1.0" standalone="no"?>
<!DOCTYPE svg PUBLIC "-//W3C//DTD SVG 20010904//EN"
 "http://www.w3.org/TR/2001/REC-SVG-20010904/DTD/svg10.dtd">
<svg version="1.0" xmlns="http://www.w3.org/2000/svg"
 width="480.000000pt" height="480.000000pt" viewBox="0 0 480.000000 480.000000"
 preserveAspectRatio="xMidYMid meet">
<metadata>
Created by potrace 1.14, written by Peter Selinger 2001-2017
</metadata>
<g transform="translate(0.000000,480.000000) scale(0.100000,-0.100000)"
fill="#000000" stroke="none">
<path d="M2814 3925 c-3 -14 -10 -25 -15 -25 -5 0 -9 -8 -9 -18 0 -10 -5 -23
-10 -28 -6 -6 -13 -34 -17 -62 -3 -29 -9 -52 -13 -52 -5 0 -6 -9 -3 -20 3 -11
1 -26 -5 -33 -5 -6 -13 -37 -17 -67 -4 -30 -11 -60 -16 -65 -4 -6 -11 -68 -15
-138 -4 -70 -11 -130 -15 -133 -5 -3 -9 -130 -9 -283 0 -321 -1 -328 -130
-626 -9 -22 -25 -62 -35 -88 -10 -26 -22 -50 -26 -53 -5 -3 -9 -13 -9 -22 -1
-21 -37 -96 -66 -137 -12 -17 -37 -59 -56 -95 -19 -36 -41 -67 -49 -69 -84
-23 -120 -8 -218 94 -44 46 -81 87 -81 91 0 3 -13 26 -30 51 -16 24 -30 48
-30 54 0 5 -4 9 -8 9 -9 0 -100 150 -136 224 -11 22 -28 50 -38 60 -38 41 -22
63 87 121 39 21 91 55 117 76 26 22 50 39 54 39 13 0 64 53 64 66 0 7 6 17 13
21 16 11 57 69 57 83 0 5 4 10 10 10 5 0 12 16 16 35 3 19 10 38 15 40 4 3 11
27 15 53 3 26 10 52 15 58 19 23 -9 318 -31 334 -4 3 -11 16 -15 30 -4 14 -10
27 -14 30 -3 3 -17 28 -31 55 -26 54 -145 185 -167 185 -7 0 -13 4 -13 9 0 9
-123 73 -145 76 -5 1 -17 4 -25 8 -18 8 -116 25 -228 38 -101 12 -1245 6
-1317 -7 -47 -8 -50 -11 -53 -42 -5 -49 10 -60 96 -67 42 -4 82 -11 87 -15 6
-4 33 -10 62 -13 54 -6 120 -35 142 -61 7 -8 15 -44 18 -78 2 -35 9 -72 14
-83 6 -12 9 -414 7 -1055 -3 -963 -4 -1037 -20 -1069 -10 -19 -18 -40 -18 -47
0 -18 -57 -32 -163 -40 -48 -4 -90 -11 -93 -15 -3 -5 -30 -9 -60 -9 -30 0 -54
-4 -54 -10 0 -5 -7 -10 -15 -10 -11 0 -15 -11 -15 -40 l0 -40 609 0 610 0 -2
38 c-3 36 -4 37 -52 46 -28 6 -53 14 -56 19 -3 5 -10 8 -15 7 -15 -3 -118 22
-128 32 -6 4 -20 8 -31 8 -12 0 -41 13 -63 30 -36 26 -42 36 -48 80 -4 28 -11
53 -15 56 -13 8 -12 824 1 824 6 0 10 37 10 91 l0 91 143 -4 c150 -4 172 -10
222 -63 24 -25 65 -82 65 -90 0 -3 11 -23 25 -44 25 -38 67 -114 122 -221 15
-30 34 -61 40 -68 7 -7 16 -24 19 -38 3 -13 10 -24 14 -24 5 0 11 -14 15 -30
4 -17 11 -30 16 -30 5 0 9 -7 9 -15 0 -7 6 -18 14 -22 7 -4 19 -25 25 -45 7
-20 19 -42 27 -48 7 -7 14 -19 14 -26 0 -8 4 -14 9 -14 5 0 12 -8 15 -17 4
-10 20 -40 36 -68 16 -27 32 -58 36 -67 3 -10 10 -18 14 -18 5 0 11 -13 15
-30 3 -16 15 -40 25 -53 19 -24 65 -108 124 -224 l31 -62 388 -1 387 0 0 59 0
58 -66 6 c-37 4 -71 10 -78 15 -6 5 -27 12 -47 16 -57 10 -129 98 -129 158 0
38 39 168 51 168 4 0 10 13 14 29 3 16 23 62 44 102 21 41 36 80 33 87 -2 6 1
12 6 12 6 0 13 13 17 30 4 16 10 30 14 30 3 0 13 15 20 33 8 17 15 34 16 37 1
3 8 20 16 38 7 17 17 32 21 32 4 0 8 5 8 11 0 14 54 128 61 129 3 0 12 -18 19
-40 7 -22 17 -40 21 -40 4 0 10 -13 14 -30 4 -16 11 -30 16 -30 5 0 8 -3 7 -7
-3 -9 53 -125 64 -133 3 -3 10 -18 13 -33 4 -15 12 -27 17 -27 5 0 8 -6 6 -12
-3 -7 12 -46 33 -87 21 -40 41 -86 44 -102 4 -16 10 -29 14 -29 4 0 13 -17 20
-38 15 -45 43 -105 53 -112 3 -3 10 -18 13 -33 4 -15 16 -44 26 -64 10 -21 19
-45 19 -55 0 -10 4 -18 10 -18 5 0 12 -16 16 -35 3 -19 10 -38 15 -41 5 -2 13
-23 19 -44 l11 -40 64 0 c50 0 65 3 65 14 0 8 5 27 12 43 6 15 12 33 13 38 1
10 18 55 35 90 5 11 12 31 15 45 4 14 13 39 20 55 16 35 27 66 30 80 2 13 13
43 30 80 8 17 17 44 21 60 4 17 11 35 16 42 5 7 7 17 3 23 -3 5 -2 10 4 10 5
0 13 15 16 32 4 18 11 38 15 43 4 6 10 24 14 40 6 27 21 64 48 118 5 10 6 22
3 27 -4 6 -2 10 4 10 5 0 13 15 16 33 4 17 11 37 15 42 4 6 11 25 15 43 3 17
11 32 16 32 5 0 9 6 9 14 0 8 5 27 12 43 6 15 10 34 9 41 -1 6 3 12 8 12 6 0
13 16 17 35 3 19 10 35 14 35 5 0 12 14 15 32 4 18 11 39 15 48 19 38 33 76
31 84 -1 4 2 13 7 20 6 6 13 26 17 44 3 17 10 32 15 32 4 0 11 17 15 38 3 20
13 47 21 59 7 12 16 40 20 62 4 23 10 41 15 41 4 0 11 16 15 35 3 19 10 35 15
35 4 0 11 16 15 35 3 19 10 38 15 41 5 2 13 24 19 47 10 40 26 79 57 139 7 14
13 35 13 45 0 11 3 23 8 27 4 4 7 11 8 14 0 4 6 20 12 35 7 16 12 35 12 43 0
8 4 14 9 14 5 0 12 18 16 40 4 22 10 42 15 45 4 3 11 22 15 42 3 21 12 47 19
58 8 11 17 35 20 53 4 17 12 32 17 32 5 0 9 6 9 14 0 8 5 27 12 43 6 15 11 31
10 36 -1 4 3 7 8 7 6 0 10 6 10 13 0 30 115 108 180 122 16 4 30 11 30 16 0 5
9 9 20 9 17 0 20 7 20 49 0 42 -3 49 -22 55 -13 3 -166 6 -340 6 l-318 0 -1
-27 c-3 -60 14 -83 58 -83 13 0 23 -4 23 -9 0 -5 22 -11 50 -15 27 -4 52 -11
55 -16 3 -6 14 -10 24 -10 10 0 27 -10 39 -23 22 -24 29 -47 13 -47 -4 0 -11
-28 -15 -61 -3 -34 -11 -68 -17 -75 -6 -8 -9 -20 -6 -29 4 -8 2 -17 -3 -20 -4
-3 -11 -23 -15 -45 -4 -22 -10 -42 -15 -45 -4 -3 -11 -21 -15 -41 -3 -20 -11
-44 -16 -53 -8 -14 -27 -60 -35 -86 -2 -5 -9 -31 -15 -57 -7 -27 -16 -48 -20
-48 -4 0 -10 -16 -13 -35 -4 -19 -13 -47 -21 -62 -8 -15 -15 -36 -15 -45 0 -9
-4 -19 -9 -23 -5 -3 -15 -30 -22 -61 -7 -30 -16 -57 -21 -60 -4 -3 -8 -13 -8
-22 -1 -9 -9 -35 -20 -57 -11 -22 -19 -47 -20 -56 0 -8 -7 -24 -15 -35 -8 -10
-15 -27 -15 -37 0 -11 -6 -31 -14 -45 -20 -39 -40 -85 -41 -97 -1 -5 -8 -23
-15 -40 -35 -80 -40 -94 -40 -103 0 -6 -8 -25 -17 -44 -9 -18 -22 -45 -30 -60
-7 -14 -13 -32 -13 -38 0 -7 -9 -34 -21 -59 -49 -106 -95 -217 -129 -306 -4
-11 -13 -33 -19 -48 -6 -15 -11 -35 -11 -43 0 -9 -6 -22 -14 -29 -8 -8 -17
-37 -21 -65 -8 -58 -25 -62 -39 -9 -5 19 -13 36 -17 39 -3 3 -10 16 -14 30 -6
23 -23 59 -121 265 -15 33 -27 63 -26 68 1 4 -2 7 -7 7 -5 0 -12 16 -15 35 -4
19 -11 35 -15 35 -5 0 -12 12 -16 28 -3 15 -16 47 -28 72 -12 25 -22 50 -23
55 -2 20 -29 75 -36 75 -4 0 -8 6 -8 14 0 8 -5 27 -12 43 -6 15 -11 31 -10 36
1 4 -3 7 -8 7 -6 0 -10 7 -10 15 0 8 -9 32 -20 52 -11 21 -20 43 -20 50 0 7
-4 13 -8 13 -4 0 -14 21 -22 48 -10 34 -14 115 -16 292 0 135 -4 252 -7 260
-3 8 -8 71 -11 139 -3 68 -10 129 -15 135 -5 6 -12 48 -16 94 -4 45 -11 84
-15 87 -5 3 -12 30 -15 60 -4 30 -11 55 -16 55 -5 0 -6 6 -3 14 3 8 1 17 -5
21 -6 3 -11 18 -11 32 0 34 -29 93 -46 93 -7 0 -16 -11 -20 -25z m-1465 -224
c5 -7 10 -12 12 -10 12 7 89 -17 151 -48 105 -54 186 -134 235 -235 45 -92 55
-116 58 -138 1 -8 5 -23 10 -33 11 -25 -2 -218 -15 -231 -5 -5 -10 -17 -10
-25 0 -9 -16 -45 -35 -81 -19 -36 -39 -74 -44 -86 -15 -33 -78 -83 -145 -114
-74 -35 -98 -44 -110 -41 -5 1 -12 -2 -15 -7 -3 -5 -46 -14 -96 -21 -122 -15
-116 -14 -242 -13 l-113 2 0 349 c0 223 -4 352 -10 356 -15 9 -13 350 3 376
12 20 19 21 185 17 129 -2 175 -7 181 -17z"/>
</g>
</svg>
